<svg width="393" height="72" viewBox="0 0 393 72" fill="none" xmlns="http://www.w3.org/2000/svg">
<g clip-path="url(#clip0_206_1442)">
<g filter="url(#filter0_dd_206_1442)">
<path d="M0 12.8C0 8.31958 0 6.07937 0.871948 4.36808C1.63893 2.86278 2.86278 1.63893 4.36808 0.871948C6.07937 0 8.31958 0 12.8 0H380.2C384.68 0 386.921 0 388.632 0.871948C390.137 1.63893 391.361 2.86278 392.128 4.36808C393 6.07937 393 8.31958 393 12.8V72H0V12.8Z" fill="#C1D6FB"/>
</g>
<path d="M210 -2L260.5 9L290 34L237 27.5L130 84L210 -2Z" fill="#196EAB" fill-opacity="0.1" stroke="#8F8F8F" stroke-opacity="0.09"/>
<path d="M70.5 45.7393L75.5 83.7393L20 70.7393L-38.7203 20.6521L32 39.7394L52.5 6.7393L70.5 45.7393Z" fill="#196EAB" fill-opacity="0.1" stroke="#8F8F8F" stroke-opacity="0.09"/>
<path d="M130.219 -15.2865L157.98 -13.5831L137.424 27.4177L90.1156 65.4731L118.083 13.5978L99.0818 -7.08642L130.219 -15.2865Z" fill="#196EAB" fill-opacity="0.1" stroke="#8F8F8F" stroke-opacity="0.09"/>
<path d="M329.219 -2.28656L356.98 -0.583133L349.5 27.0001L367.5 60.5L301 36.9999L298 -2.28657L329.219 -2.28656Z" fill="#196EAB" fill-opacity="0.1" stroke="#8F8F8F" stroke-opacity="0.09"/>
</g>
<defs>
<filter id="filter0_dd_206_1442" x="-4" y="0" width="401" height="80" filterUnits="userSpaceOnUse" color-interpolation-filters="sRGB">
<feFlood flood-opacity="0" result="BackgroundImageFix"/>
<feColorMatrix in="SourceAlpha" type="matrix" values="0 0 0 0 0 0 0 0 0 0 0 0 0 0 0 0 0 0 127 0" result="hardAlpha"/>
<feOffset dy="4"/>
<feGaussianBlur stdDeviation="2"/>
<feComposite in2="hardAlpha" operator="out"/>
<feColorMatrix type="matrix" values="0 0 0 0 0 0 0 0 0 0 0 0 0 0 0 0 0 0 0.25 0"/>
<feBlend mode="normal" in2="BackgroundImageFix" result="effect1_dropShadow_206_1442"/>
<feColorMatrix in="SourceAlpha" type="matrix" values="0 0 0 0 0 0 0 0 0 0 0 0 0 0 0 0 0 0 127 0" result="hardAlpha"/>
<feOffset dy="4"/>
<feGaussianBlur stdDeviation="2"/>
<feComposite in2="hardAlpha" operator="out"/>
<feColorMatrix type="matrix" values="0 0 0 0 0 0 0 0 0 0 0 0 0 0 0 0 0 0 0.25 0"/>
<feBlend mode="normal" in2="effect1_dropShadow_206_1442" result="effect2_dropShadow_206_1442"/>
<feBlend mode="normal" in="SourceGraphic" in2="effect2_dropShadow_206_1442" result="shape"/>
</filter>
<clipPath id="clip0_206_1442">
<rect width="393" height="72" fill="white"/>
</clipPath>
</defs>
</svg>
